# xmcd
#
# Track frame offsets:
#	150
#	3235
#	18520
#	36325
#	51953
#	54476
#	74943
#	82717
#	103074
#	121519
#	136447
#	156483
#	158839
#	176350
#	209998
#	211814
#	234726
#	249615
#	255519
#	282720
#	300630
#
# Disc length: 4238 seconds
# Revision: 0
# Processed by: cddbd v1.5.2PL0 Copyright (c) Steve Scherf et al.
# Submitted via: dBpowerAMP V12.0
#
DISCID=32108c15
DTITLE=Various Artist - Late Registration
DYEAR=2005
DGENRE=Hip-Hop
TTITLE0=Kanye West (Feat. Bernie Mac) - Wake Up Mr. West
TTITLE1=Kanye West (Feat. Adam Levine Of Maroon 5) - Heard 'Em Say
TTITLE2=Kanye West (Feat. Lupe Fiasco)(By Just Blaze) - Touch The Sky
TTITLE3=Kanye West (Feat. Jamie Foxx) - Gold Digger
TTITLE4=Kanye West - Skit #1
TTITLE5=Kanye West (Feat. GLC and Paul Wall) - Drive Slow
TTITLE6=Kanye West (Feat. Common) - My Way Home
TTITLE7=Kanye West (Feat. The Game) - Crack Music
TTITLE8=Kanye West - Roses
TTITLE9=Kanye West (Feat. Brandy) - Bring Me Down
TTITLE10=Kanye West - Addiction
TTITLE11=Kanye West - Skit #2
TTITLE12=Kanye West (Feat. Jay-Z) - Diamonds From Sierra Leone (Remix)
TTITLE13=Kanye West (Feat. Nas and Really Doe) - We Major
TTITLE14=Kanye West - Skit #3
TTITLE15=Kanye West - Hey Mama
TTITLE16=Kanye West - Celebration
TTITLE17=Kanye West - Skit #4
TTITLE18=Kanye West (Feat. Cam'ron and Consequence) - Gone
TTITLE19=Kanye West - Diamonds From Sierra Leone (Bonus Track)
TTITLE20=Kanye West - Late (Hidden Track)
EXTD=
EXTT0=
EXTT1=
EXTT2=
EXTT3=
EXTT4=
EXTT5=
EXTT6=
EXTT7=
EXTT8=
EXTT9=
EXTT10=
EXTT11=
EXTT12=
EXTT13=
EXTT14=
EXTT15=
EXTT16=
EXTT17=
EXTT18=
EXTT19=
EXTT20=
PLAYORDER=
